<svg width="326" height="120" viewBox="0 0 326 120" fill="none" xmlns="http://www.w3.org/2000/svg">
<path d="M3.216 96C2.416 96 2.016 95.6 2.016 94.8V81.264C2.016 80.88 2.032 80.576 2.064 80.352C2.128 80.096 2.32 79.872 2.64 79.68L12.816 73.824V71.424L2.784 66.144C2.272 65.856 2.016 65.376 2.016 64.704V43.104C2.016 42.592 2.048 42.224 2.112 42C2.176 41.744 2.4 41.472 2.784 41.184L15.456 32.64C15.712 32.448 15.984 32.304 16.272 32.208C16.56 32.08 16.928 32.016 17.376 32.016H34.32C35.12 32.016 35.52 32.416 35.52 33.216V47.424C35.52 48.128 35.28 48.608 34.8 48.864L22.224 54.384V56.88L34.8 64.08C35.28 64.304 35.52 64.816 35.52 65.616V86.496C35.52 86.752 35.472 87.024 35.376 87.312C35.312 87.568 35.152 87.776 34.896 87.936L19.824 95.424C19.632 95.552 19.392 95.68 19.104 95.808C18.848 95.936 18.592 96 18.336 96H3.216Z" fill="#4F46E5"/>
<path d="M128.216 96C127.416 96 127.016 95.6 127.016 94.8V81.264C127.016 80.88 127.032 80.576 127.064 80.352C127.128 80.096 127.32 79.872 127.64 79.68L137.816 73.824V71.424L127.784 66.144C127.272 65.856 127.016 65.376 127.016 64.704V43.104C127.016 42.592 127.048 42.224 127.112 42C127.176 41.744 127.4 41.472 127.784 41.184L140.456 32.64C140.712 32.448 140.984 32.304 141.272 32.208C141.56 32.08 141.928 32.016 142.376 32.016H159.32C160.12 32.016 160.52 32.416 160.52 33.216V47.424C160.52 48.128 160.28 48.608 159.8 48.864L147.224 54.384V56.88L159.8 64.08C160.28 64.304 160.52 64.816 160.52 65.616V86.496C160.52 86.752 160.472 87.024 160.376 87.312C160.312 87.568 160.152 87.776 159.896 87.936L144.824 95.424C144.632 95.552 144.392 95.68 144.104 95.808C143.848 95.936 143.592 96 143.336 96H128.216Z" fill="#4F46E5"/>
<path d="M52.304 96C51.568 96 50.928 95.728 50.384 95.184L40.784 85.584C40.272 85.072 40.016 84.432 40.016 83.664V44.4C40.016 43.6 40.416 43.2 41.216 43.2H56.384C57.184 43.2 57.584 43.6 57.584 44.4V76.416C57.584 77.728 58.256 78.384 59.6 78.384H61.616V44.4C61.616 43.6 62.016 43.2 62.816 43.2H77.984C78.784 43.2 79.184 43.6 79.184 44.4V94.8C79.184 95.6 78.784 96 77.984 96H52.304ZM84.4348 96C83.6348 96 83.2348 95.6 83.2348 94.8V33.216C83.2348 32.416 83.6348 32.016 84.4348 32.016H99.6028C100.403 32.016 100.803 32.416 100.803 33.216V46.416L103.203 44.016C103.747 43.472 104.387 43.2 105.123 43.2H110.115C110.851 43.2 111.491 43.472 112.035 44.016L121.635 53.616C122.147 54.128 122.403 54.768 122.403 55.536V83.664C122.403 84.432 122.147 85.072 121.635 85.584L112.035 95.184C111.491 95.728 110.851 96 110.115 96H84.4348ZM100.803 80.016H102.819C103.459 80.016 103.955 79.84 104.307 79.488C104.659 79.136 104.835 78.64 104.835 78V61.2C104.835 60.56 104.675 60.064 104.355 59.712C104.035 59.36 103.555 59.184 102.915 59.184H102.723C102.115 59.184 101.635 59.36 101.283 59.712C100.963 60.064 100.803 60.56 100.803 61.2V80.016Z" fill="#4F46E5"/>
<path d="M184.6 96C184.376 96 184.136 95.968 183.88 95.904C183.656 95.84 183.416 95.744 183.16 95.616L174.376 91.44L165.88 87.36C165.304 87.104 165.016 86.464 165.016 85.44V55.536C165.016 54.768 165.272 54.128 165.784 53.616L175.384 44.016C175.928 43.472 176.568 43.2 177.304 43.2H191.896C192.632 43.2 193.272 43.472 193.816 44.016L203.416 53.616C203.928 54.128 204.184 54.768 204.184 55.536V75.216H183.256V77.04L187.24 78.816L196.456 81.456C196.808 81.488 196.984 81.984 196.984 82.944V94.8C196.984 95.6 196.584 96 195.784 96H184.6ZM185.224 66.096H185.32C186.536 66.096 187.448 65.744 188.056 65.04C188.696 64.336 189.016 63.296 189.016 61.92V61.776C189.016 60.4 188.696 59.36 188.056 58.656C187.448 57.952 186.536 57.6 185.32 57.6H185.176C184.056 57.6 183.176 57.952 182.536 58.656C181.928 59.36 181.624 60.4 181.624 61.776V61.92C181.624 63.296 181.928 64.336 182.536 65.04C183.144 65.744 184.04 66.096 185.224 66.096ZM209.435 96C208.635 96 208.235 95.6 208.235 94.8V44.4C208.235 43.6 208.635 43.2 209.435 43.2H235.115C235.851 43.2 236.491 43.472 237.035 44.016L246.635 53.616C247.147 54.128 247.403 54.768 247.403 55.536V94.8C247.403 95.6 247.003 96 246.203 96H231.035C230.235 96 229.835 95.6 229.835 94.8V62.784C229.835 61.472 229.163 60.816 227.819 60.816H225.803V94.8C225.803 95.6 225.403 96 224.603 96H209.435ZM252.654 96C251.854 96 251.454 95.6 251.454 94.8V83.856C251.454 83.12 251.694 82.64 252.174 82.416L261.918 77.28V75.6L252.174 70.32C251.694 70.064 251.454 69.552 251.454 68.784V52.704C251.454 52.448 251.486 52.208 251.55 51.984C251.614 51.728 251.79 51.488 252.078 51.264L262.302 43.776C262.526 43.648 262.766 43.52 263.022 43.392C263.278 43.264 263.55 43.2 263.838 43.2H278.718C279.518 43.2 279.918 43.6 279.918 44.4V55.104C279.918 55.52 279.886 55.856 279.822 56.112C279.79 56.368 279.614 56.576 279.294 56.736L270.318 61.584V63.216L279.102 68.016C279.646 68.272 279.918 68.752 279.918 69.456V84.96C279.918 85.76 279.646 86.4 279.102 86.88L269.694 95.376C269.182 95.792 268.542 96 267.774 96H252.654ZM303.569 96C303.345 96 303.105 95.968 302.849 95.904C302.625 95.84 302.385 95.744 302.129 95.616L293.345 91.44L284.849 87.36C284.273 87.104 283.985 86.464 283.985 85.44V55.536C283.985 54.768 284.241 54.128 284.753 53.616L294.353 44.016C294.897 43.472 295.537 43.2 296.273 43.2H310.865C311.601 43.2 312.241 43.472 312.785 44.016L322.385 53.616C322.897 54.128 323.153 54.768 323.153 55.536V75.216H302.225V77.04L306.209 78.816L315.425 81.456C315.777 81.488 315.953 81.984 315.953 82.944V94.8C315.953 95.6 315.553 96 314.753 96H303.569ZM304.193 66.096H304.289C305.505 66.096 306.417 65.744 307.025 65.04C307.665 64.336 307.985 63.296 307.985 61.92V61.776C307.985 60.4 307.665 59.36 307.025 58.656C306.417 57.952 305.505 57.6 304.289 57.6H304.145C303.025 57.6 302.145 57.952 301.505 58.656C300.897 59.36 300.593 60.4 300.593 61.776V61.92C300.593 63.296 300.897 64.336 301.505 65.04C302.113 65.744 303.009 66.096 304.193 66.096Z" fill="#4F46E5"/>
</svg>
